# xmcd
#
# Track frame offsets: 
#        150
#        19566
#        27957
#        41286
#        57322
#        69850
#        85468
#        99815
#        116972
#        128897
#        148239
#        166977
#        179035
#        189498
#        200595
#        213848
#
# Disc length: 3027 seconds
#
# Revision: 1
# Processed by: cddbd v1.5.2PL0 Copyright (c) Steve Scherf et al.
# Submitted via: ExactAudioCopy v1.0b3
#
DISCID=e10bd110
DTITLE=Pino Daniele - Ricomincio Da 30 - CD2
DYEAR=2008
DGENRE=Blues
TTITLE0=Sicily (Special Guest Chick Corea)
TTITLE1=Appocundria (Special Guest Al Di Meola)
TTITLE2=Resta Resta Cu Mmè
TTITLE3='Na Tazzulella 'E Caffè
TTITLE4=Alleria
TTITLE5=Donna Cuncetta
TTITLE6=Un Cielo Senza Nuvole
TTITLE7=Chi Tene 'O Mare
TTITLE8=Viento (Special Guest Al Di Meola)
TTITLE9=Je Sto Vicino A Te
TTITLE10=L'Ironia Di Sempre (Special Guest Chiara Civello)
TTITLE11=Acqua 'R Rose (Special Guest Al Di Meola)
TTITLE12=Terra Mia
TTITLE13=Maggio Se Ne Va (Special Guest Wayne Shorter)
TTITLE14=Lazzari Felici
TTITLE15='O Munno Va
EXTD=
EXTT0=
EXTT1=
EXTT2=
EXTT3=
EXTT4=
EXTT5=
EXTT6=
EXTT7=
EXTT8=
EXTT9=
EXTT10=
EXTT11=
EXTT12=
EXTT13=
EXTT14=
EXTT15=
PLAYORDER=
